<?xml version="1.0" encoding="UTF-8" standalone="no"?>
<svg
   width="1.66667in"
   height="1.66667in"
   viewBox="0 0 500 500"
   version="1.1"
   id="svg1408"
   sodipodi:docname="cloudbuddy.svg"
   inkscape:version="1.2 (dc2aeda, 2022-05-15)"
   xmlns:inkscape="http://www.inkscape.org/namespaces/inkscape"
   xmlns:sodipodi="http://sodipodi.sourceforge.net/DTD/sodipodi-0.dtd"
   xmlns="http://www.w3.org/2000/svg"
   xmlns:svg="http://www.w3.org/2000/svg">
  <defs
     id="defs1412" />
  <sodipodi:namedview
     id="namedview1410"
     pagecolor="#ffffff"
     bordercolor="#000000"
     borderopacity="0.25"
     inkscape:showpageshadow="2"
     inkscape:pageopacity="0.0"
     inkscape:pagecheckerboard="0"
     inkscape:deskcolor="#d1d1d1"
     inkscape:document-units="in"
     showgrid="false"
     inkscape:zoom="2.9499942"
     inkscape:cx="-65.254366"
     inkscape:cy="92.03408"
     inkscape:window-width="2560"
     inkscape:window-height="1387"
     inkscape:window-x="0"
     inkscape:window-y="25"
     inkscape:window-maximized="1"
     inkscape:current-layer="svg1408" />
  <path
     id="Cloud"
     fill="none"
     stroke="black"
     stroke-width="1"
     d="m 293,83.21 8.86235,-1.010375 8.57964,0.448585 C 315.94199,82.50821 326.56,84.31 332,85.4 c 40.58,8.16 73.28,36.3 88.6,74.6 4.55,11.38 8.25,26.72 8.38,39 v 15 c -0.25,2.67 -1.35,6.26 0,8.62 L 445,234.3 c 8.7,7.44 16.24,18.07 20.55,28.7 19.78,48.83 -15.23,102.92 -68.55,103 H 103 c -43.07,-0.07 -74.49,-34.63 -74,-77 0.31,-26.46 16.16,-50.85 39,-63.56 4.66,-2.59 11.81,-5.27 17,-6.54 2.99,-0.73 7.31,-0.92 9.4,-3.33 1.8,-2.07 1.64,-5.89 2.03,-8.57 0.74,-5.08 1.82,-10.08 3.29,-15 4.18,-14.03 11.69,-28.07 21.45,-39 20.89,-23.39 49.51,-36.14 80.83,-36 4.3,0.02 13.81,1.72 17,0.55 2.64,-0.96 7.46,-5.71 10,-7.74 4.24,-3.4 12.26,-8.9 17,-11.5 16.57,-9.1 28.57,-12.1 47,-15.1 z m 3,17.07 c -18.81,2.77 -31.86,6.5 -48,17.06 -4.96,3.25 -9.6,6.86 -14,10.83 -2.89,2.61 -6.2,6.61 -10,7.63 L 202,134 c -37.72,-0.42 -70.83,22.86 -84.19,58 -3.49,9.19 -4.13,16.51 -5.39,26 -0.41,3.15 -0.17,8.35 -1.59,10.89 -3.1,5.53 -9.6,4.71 -14.83,5.28 -3.72,0.41 -10.54,2.25 -14,3.7 -22.41,9.44 -36.54,30.77 -35.99,55.13 0.72,31.36 26.86,55.95 57.99,56 h 292 c 32.63,-0.05 58.73,-26.26 57.99,-59 -0.37,-15.94 -7.76,-32.1 -20,-42.38 C 420.26,236.09 409.22,238.16 410.17,226 L 412,209 c 0.03,-18.82 -2.43,-33.93 -10.97,-51 C 381.31,118.56 339.61,96.23 296,100.28 Z"
     style="fill:#03989e;fill-opacity:1;stroke:none"
     sodipodi:nodetypes="ccccccccccccccccccccccccccccccccccccccccccc" />
  <path
     id="Buddy"
     fill="none"
     stroke="black"
     stroke-width="1"
     d="m 255,184.48932 c 6.06,-0.75 13.19,-0.3 19,1.67 32.78,11.12 37.33,56.33 8,74.43 -8.75,5.4 -15.15,5.59 -25,5.47 -28.36,-0.35 -44.8,-31.82 -34.55,-57 5.86,-14.38 17.67,-22.13 32.55,-24.57 z m -77,164.57 c 0,0 0,-18 0,-18 0.01,-3.49 -0.12,-6.66 1.14,-10 6.44,-16.97 33.84,-25.17 49.86,-29.27 27.5,-7.04 62.42,-3.85 88,8.53 13.93,6.74 25.79,13.55 26,30.74 0,0 0,18 0,18 0,0 -165,0 -165,0 z"
     style="fill:#29b473;fill-opacity:1;stroke:none" />
  <g
     id="g5578"
     transform="matrix(1.0586664,0,0,1,-2.5508798,0)">
    <text
       xml:space="preserve"
       style="font-weight:bold;font-size:33.3333px;font-family:Futura;-inkscape-font-specification:'Futura Bold';fill:#10386d;fill-opacity:1;stroke:none;stroke-width:3.54331"
       x="101.69492"
       y="405.41003"
       id="text3964"><tspan
         sodipodi:role="line"
         id="tspan3962"
         style="font-size:33.3333px;fill:#10386d;fill-opacity:1;stroke-width:3.5433"
         x="101.69492"
         y="405.41003">CLOUDY</tspan></text>
    <text
       xml:space="preserve"
       style="font-weight:bold;font-size:33.3333px;font-family:Futura;-inkscape-font-specification:'Futura Bold';fill:#03989e;fill-opacity:1;stroke:none;stroke-width:3.54331"
       x="248.77907"
       y="405.41003"
       id="text4018"><tspan
         sodipodi:role="line"
         id="tspan4016"
         style="font-size:33.3333px;fill:#03989e;fill-opacity:1;stroke-width:3.5433"
         x="248.77907"
         y="405.41003">BUDDY</tspan></text>
  </g>
</svg>
